<svg width="123" height="58" viewBox="0 0 123 58" fill="none" xmlns="http://www.w3.org/2000/svg">
<path d="M2.2218 49.0377L1.32486 53.7848C1.20527 54.1499 1.20527 54.4542 1.20527 54.8194C1.20527 55.854 1.80323 56.3409 2.64037 56.3409C3.71669 56.3409 4.49404 55.6106 4.79302 53.7848L5.74975 49.0377H6.70649L5.80955 53.7848C5.39098 56.1583 4.25486 57.1321 2.58057 57.1321C1.20527 57.1321 0.248535 56.4017 0.248535 54.7585L0.308331 53.6022L1.14547 48.9769H2.2218V49.0377ZM8.08179 57.1321L8.79934 53.0545C8.97873 52.385 8.97873 51.8373 9.09832 51.3504H9.93546L9.75608 52.4459C10.2344 51.5938 11.0118 51.1678 11.8489 51.1678C12.5067 51.1678 13.2242 51.5938 13.2242 52.7502L13.1644 53.7239L12.5067 57.0103H11.4902L12.0881 53.7239L12.1479 52.9327C12.1479 52.385 11.9087 51.959 11.251 51.959C10.5932 51.959 9.57669 52.7502 9.3375 54.2108L8.79934 57.0103H8.08179V57.1321ZM15.3171 57.1321L16.3934 51.3504H17.4099L16.3336 57.1321H15.3171ZM16.5728 49.7072C16.5728 49.4029 16.9316 49.0377 17.2306 49.0377C17.5893 49.0377 17.8285 49.2812 17.8285 49.6463C17.8285 50.0723 17.5893 50.3158 17.1708 50.3158C16.812 50.3158 16.5728 50.0723 16.5728 49.7072ZM21.5957 49.8289L21.3565 51.3504H22.672L22.4926 52.0807H21.1771L20.6987 54.8802C20.5791 55.2454 20.5791 55.4888 20.5791 55.854C20.5791 56.1583 20.7585 56.3409 21.1173 56.3409H21.5359L21.4163 57.1321L20.6987 57.1929C19.8616 57.1929 19.5028 56.706 19.5028 56.0974L19.5626 55.002L20.1606 52.0807H19.3234L19.5028 51.3504H20.3399L20.5791 50.0723L21.5957 49.8289ZM27.8742 56.7669C27.4556 57.0103 26.7381 57.1929 26.0205 57.1929C24.5257 57.1929 23.8679 56.1583 23.8679 54.8802C23.8679 53.1762 25.1236 51.1678 26.9175 51.1678C27.9938 51.1678 28.5918 51.8373 28.5918 52.6284C28.5918 54.1499 26.9175 54.576 24.8246 54.4542C24.7648 54.7585 24.8246 55.2454 24.9442 55.6106C25.1834 56.0974 25.602 56.3409 26.1999 56.3409C26.8577 56.3409 27.3361 56.0974 27.6948 55.9149L27.8742 56.7669ZM26.7381 51.959C25.8412 51.959 25.1834 52.8719 24.9442 53.7239C26.4391 53.7239 27.5752 53.5413 27.5752 52.6284C27.5752 52.2024 27.2763 51.959 26.7381 51.959ZM36.126 48.6117L34.8703 55.2454C34.7507 55.854 34.6311 56.5235 34.6311 57.0103H33.6744L33.8538 55.9149C33.3754 56.7669 32.5981 57.1929 31.8805 57.1929C30.7444 57.1929 30.2063 56.28 30.2063 55.0628C30.2063 53.0545 31.7012 51.1678 33.6744 51.1678C34.0332 51.1678 34.4518 51.2287 34.6909 51.3504L35.1693 48.6117H36.126ZM34.5116 52.2024C34.3322 52.0198 34.0332 51.959 33.6146 51.959C32.2991 51.959 31.163 53.3588 31.163 54.8802C31.163 55.6106 31.462 56.3409 32.2991 56.3409C33.0167 56.3409 33.9734 55.4888 34.2126 54.2108L34.5116 52.2024ZM41.9262 49.1594C42.4644 49.0377 43.0624 48.9769 43.6005 48.9769C44.4377 48.9769 45.0356 49.1594 45.4542 49.5246C45.813 49.8898 46.0522 50.3158 46.0522 50.8027C46.0522 51.8373 45.215 52.6284 44.3779 52.8719C45.1552 53.1153 45.6934 53.7239 45.6934 54.6368C45.6934 55.4888 45.2748 56.0974 44.7964 56.5235C44.1985 57.0103 43.3015 57.1929 42.2252 57.1929L40.5509 57.1321L41.9262 49.1594ZM41.6273 56.28L42.4644 56.3409C43.6005 56.3409 44.7366 55.854 44.7366 54.576C44.7366 53.6022 43.9593 53.1762 43.0624 53.1762H42.285L41.6273 56.28ZM42.3448 52.4459H43.1222C44.1985 52.4459 45.1552 51.8373 45.1552 50.9244C45.1552 50.1332 44.5573 49.8289 43.7201 49.8289L42.883 49.8898L42.3448 52.4459ZM51.3142 57.1321L51.4936 55.6714C50.8956 56.8278 50.0585 57.2538 49.2811 57.2538C48.3244 57.2538 47.7264 56.4017 47.7264 55.428C47.7264 53.3588 49.1615 51.3504 51.6132 51.3504C52.1513 51.3504 52.8091 51.4113 53.1679 51.5938L52.5699 54.576C52.3905 55.6106 52.3307 56.5843 52.3307 57.1929H51.3142V57.1321ZM51.9719 52.0198L51.3142 51.959C49.8791 51.959 48.6234 53.4805 48.6234 55.0628C48.6234 55.7323 48.8626 56.3409 49.6399 56.3409C50.4771 56.3409 51.374 55.2454 51.6132 53.7239L51.9719 52.0198ZM54.7226 57.1321L55.4999 53.0545L55.7391 51.3504H56.5762L56.3968 52.4459C56.8752 51.5938 57.6526 51.1678 58.4897 51.1678C59.1474 51.1678 59.9248 51.5938 59.9248 52.7502L59.8052 53.7239L59.1474 57.0103H58.1309L58.7289 53.7239L58.7887 52.9327C58.7887 52.385 58.5495 51.959 57.8917 51.959C57.234 51.959 56.2175 52.7502 55.9783 54.2108L55.4999 57.0103H54.7226V57.1321ZM62.0774 57.1321L63.6321 48.7334H64.5889L63.5723 53.9674C63.7517 53.7848 63.9909 53.5413 64.0507 53.3588L66.0838 51.3504H67.2199L64.7683 53.7239L66.3828 57.1321H65.3064L63.9909 54.3325L63.2136 55.002L62.795 57.1929H62.0774V57.1321ZM71.7644 57.1321L72.6613 52.0807H71.9438L72.0634 51.3504H72.8407L72.9005 50.9852C73.0799 50.1332 73.3191 49.4637 73.8572 48.9769C74.1562 48.6117 74.6944 48.4291 75.1727 48.4291C75.5913 48.4291 75.8305 48.5508 75.9501 48.6117L75.6511 49.4029C75.5315 49.2812 75.3521 49.2812 75.1129 49.2812C74.3356 49.2812 73.917 50.0723 73.7376 50.9852V51.3504H74.9934L74.814 52.0807H73.618L72.6613 57.1321H71.7644ZM81.3317 53.6022C81.3317 55.428 80.076 57.2538 78.1625 57.2538C76.7872 57.2538 76.0099 56.1583 76.0099 54.8802C76.0099 53.0545 77.3254 51.2287 79.1791 51.2287C80.674 51.1678 81.3317 52.385 81.3317 53.6022ZM77.0264 54.8194C77.0264 55.7323 77.5048 56.4017 78.3419 56.4017C79.5378 56.4017 80.375 54.8802 80.375 53.6022C80.375 52.9327 80.0162 52.0198 78.9997 52.0198C77.8635 51.959 77.0264 53.4805 77.0264 54.8194ZM83.1256 57.1321L83.7833 53.3588C83.9627 52.6284 84.0225 51.8373 84.0823 51.3504H84.9195L84.7999 52.6284C85.0988 51.8373 85.7566 51.2287 86.534 51.2287H86.7731L86.5938 52.2024H86.3546C85.5174 52.2024 84.7999 53.1762 84.5009 54.576L84.0225 57.1321H83.1256ZM92.6929 54.576L91.4372 57.1321H90.4207L94.5466 49.1594H95.6827L96.8188 57.1321H95.8023L95.4435 54.576H92.6929ZM95.3837 53.7239L95.025 51.4113C94.9652 50.9852 94.9652 50.3766 94.8456 49.9506L94.1878 51.4113L93.0517 53.7239H95.3837ZM98.7921 57.1321L99.689 52.0807H98.9715L99.1509 51.3504H99.8684L99.988 50.9852C100.108 50.1332 100.407 49.4637 100.885 48.9769C101.184 48.6117 101.722 48.4291 102.2 48.4291C102.619 48.4291 102.858 48.5508 102.978 48.6117L102.739 49.4029C102.559 49.2812 102.38 49.2812 102.141 49.2812C101.363 49.2812 100.945 50.0723 100.825 50.9852L100.706 51.2287H101.961L101.782 52.0198H100.526L99.6292 57.0103H98.7921V57.1321ZM103.038 57.1321L103.695 53.3588L104.054 51.3504H104.891L104.712 52.6284C105.071 51.8373 105.728 51.2287 106.446 51.2287H106.745L106.566 52.2024H106.326C105.489 52.2024 104.712 53.1762 104.473 54.576L103.994 57.1321H103.038ZM107.821 57.1321L108.898 51.3504H109.914L108.838 57.1321H107.821ZM109.077 49.7072C109.077 49.4029 109.316 49.0377 109.735 49.0377C110.034 49.0377 110.333 49.2812 110.333 49.6463C110.333 50.0723 110.034 50.3158 109.615 50.3158C109.316 50.3158 109.077 50.0723 109.077 49.7072ZM115.415 56.8278C115.057 57.0103 114.459 57.1929 113.741 57.1929C112.246 57.1929 111.588 56.1583 111.588 55.002C111.588 53.0545 112.964 51.2287 114.997 51.2287C115.475 51.2287 116.013 51.4113 116.133 51.533L115.894 52.2633C115.655 52.2024 115.415 52.0198 114.997 52.0198C113.502 52.0198 112.545 53.4805 112.545 54.8194C112.545 55.7323 113.083 56.3409 113.98 56.3409C114.578 56.3409 114.997 56.1583 115.296 55.9757L115.415 56.8278ZM121.096 57.1321L121.216 55.6714C120.677 56.8278 119.84 57.2538 119.063 57.2538C118.046 57.2538 117.508 56.4017 117.508 55.428C117.508 53.3588 118.884 51.3504 121.395 51.3504C121.933 51.3504 122.591 51.4113 122.89 51.5938L122.352 54.576C122.172 55.6106 122.053 56.5843 122.053 57.1929H121.096V57.1321ZM121.754 52.0198L121.096 51.959C119.661 51.959 118.405 53.4805 118.405 55.0628C118.405 55.7323 118.644 56.3409 119.422 56.3409C120.259 56.3409 121.156 55.2454 121.395 53.7239L121.754 52.0198ZM24.5854 14.9563L20.9977 31.8753C19.9214 35.5269 17.9481 38.083 13.7624 38.2656C10.1746 38.2656 8.73955 35.8312 9.63648 30.719L12.8057 14.9563H7.54363L3.89608 33.0316C3.23833 39.9696 7.24465 41.9171 13.3438 41.7346C19.144 41.552 23.1503 38.8742 25.4226 33.5185L29.4289 14.9563H24.5854ZM68.8942 23.4767L70.987 32.2405H63.2136L68.8942 23.4767ZM70.5087 14.9563L52.8689 41.126H57.6526L61.0011 36.0746H72.0036L73.0799 41.126H78.7605L72.4819 14.9563H70.5087ZM87.6701 41.3086H97.7756C106.865 40.8825 108.838 36.6832 105.908 29.6844L94.8456 7.71405L87.6701 41.3086ZM112.485 0.836914C103.396 1.26293 101.483 5.5231 104.413 12.4611L115.415 34.4314L122.591 0.836914H112.485ZM36.3652 37.8396L38.2189 29.0149H40.3118C43.3613 29.0149 45.9326 30.1104 45.9326 33.0316C45.9326 36.5615 42.5242 38.0221 38.6973 38.0221L36.3652 37.8396ZM40.3716 18.3036H42.883C45.6336 18.3036 47.3079 18.9731 47.3079 21.2249C47.3079 23.9027 44.7964 25.6068 41.0293 25.6068H38.9365L40.3716 18.3036ZM36.3652 14.9563L35.9467 15.0172L30.6248 41.2477H40.8499C44.3181 41.2477 46.2913 40.2739 47.6068 39.4828C49.6997 38.083 51.1946 35.8312 51.7328 33.0925C52.3905 29.3801 49.8791 27.4326 46.7697 27.1283C49.9389 26.3979 52.6297 24.0244 52.8091 20.6163C53.2277 14.9563 46.9491 14.9563 46.9491 14.9563H36.3652Z" fill="#D71920"/>
</svg>
