<svg width="66" height="78" viewBox="0 0 66 78" fill="none" xmlns="http://www.w3.org/2000/svg">
<path d="M41.8778 0.169922C44.4464 0.206253 46.8971 0.702259 49.1855 1.88699C51.2032 2.93823 52.8483 4.40808 53.9712 6.43397C54.701 7.77135 55.1796 9.23535 55.3828 10.7511C55.8003 13.6608 55.3781 16.4757 54.4352 19.2282C53.8812 20.8426 53.1145 22.3567 52.2841 23.8439C50.5924 26.8713 48.4188 29.4951 45.8906 31.8211C42.6469 34.8082 39.09 37.4227 35.284 39.6174C33.8096 40.4648 32.2809 41.1765 30.6365 41.6117C29.6291 41.8886 28.589 42.0225 27.5456 42.0097C26.1721 41.9813 25.0973 41.3447 24.2615 40.2721C23.4898 39.3095 23.0921 38.092 23.1441 36.8506C23.1532 36.5053 23.2021 36.1623 23.29 35.8286C23.7874 34.0302 24.4633 32.3076 25.4737 30.7367C26.2458 29.5369 27.1662 28.4715 28.3698 27.7093C29.7084 26.861 31.1634 26.4985 32.7372 26.8484C33.2292 26.9658 33.6922 27.1849 34.0975 27.4921C35.1335 28.2456 35.0792 29.4279 34.5817 30.183C34.1556 30.8392 33.6792 31.4601 33.157 32.0399C32.2723 33.0098 31.3326 33.9267 30.4153 34.865C29.6036 35.6951 28.8408 36.5663 28.2223 37.5591C27.9018 38.0741 27.6062 38.5993 27.5177 39.2177C27.406 39.9933 27.8017 40.5217 28.5707 40.5944C28.9686 40.6274 29.3691 40.5865 29.7526 40.4735C30.9345 40.141 32.0318 39.6047 33.1096 39.0266C34.7719 38.1317 36.306 37.0378 37.8014 35.8839C39.6142 34.4851 41.3765 33.0263 43.0007 31.4041C44.8507 29.5583 46.4997 27.5521 47.7615 25.2372C48.6834 23.547 49.3625 21.762 49.6643 19.8474C49.9313 18.1612 49.7823 16.5184 49.0148 14.9703C48.6452 14.2052 48.0671 13.5644 47.3495 13.1245C47.0181 12.9215 46.6526 12.7828 46.2716 12.7154C44.8849 12.465 43.5431 12.6704 42.2247 13.1182C40.8504 13.5858 39.5754 14.2682 38.3361 15.0138C35.6464 16.6376 32.9537 18.2607 30.3905 20.0891C29.1054 21.0053 27.8599 21.98 26.6004 22.9325C25.4628 23.7934 24.3329 24.6645 23.0898 25.3683C22.0809 25.953 20.989 26.3747 19.853 26.6186C18.4453 26.9092 17.1478 26.6391 15.9559 25.8603C14.7189 25.0523 13.8529 23.9434 13.4726 22.476C13.2305 21.5495 13.326 20.6309 13.5347 19.7163C13.8397 18.3736 14.4186 17.1573 15.1403 16.0042C16.9251 13.1561 19.1694 10.7401 21.7791 8.67468C25.6467 5.61414 29.9024 3.25732 34.5057 1.5521C36.8691 0.672224 39.3615 0.204925 41.8778 0.169922Z" fill="#E20010"/>
<path d="M10.0581 65.2854C10.0449 64.3914 9.9448 63.5873 9.43729 62.8899C9.19015 62.5529 8.848 62.3006 8.45641 62.1665C7.44759 61.7984 6.42015 61.8418 5.41832 62.157C4.61515 62.4097 3.84069 62.7541 3.05459 63.0613C2.89938 63.1198 2.75815 63.1948 2.57035 63.2801C2.2002 62.3457 1.83625 61.439 1.45522 60.4913C2.00697 60.2251 2.5269 59.9534 3.06312 59.7204C4.29853 59.1825 5.57973 58.8137 6.92689 58.7308C8.27405 58.6478 9.60336 58.7205 10.8295 59.3855C12.2162 60.1327 13.2172 61.2116 13.6363 62.7817C13.6968 62.9872 13.733 63.1994 13.7442 63.4136C13.7977 65.4521 13.8699 67.4906 13.8784 69.5291C13.8838 70.9224 13.7938 72.3164 13.7535 73.7104C13.7463 73.9016 13.6681 74.0828 13.5346 74.2175C12.5763 75.2916 11.4037 76.0341 10.0752 76.5325C8.65056 77.0615 7.13343 77.2834 5.62008 77.1841C4.22326 77.1051 3.01734 76.523 1.99766 75.557C0.977977 74.5911 0.265597 73.4245 0.0669379 71.995C-0.204667 70.037 0.350183 68.3381 1.73304 66.9401C2.62235 66.0413 3.71808 65.5769 4.95271 65.4126C6.3185 65.2317 7.68893 65.2799 9.05937 65.2839L10.0581 65.2854ZM9.87884 68.4684C9.79834 68.4522 9.71698 68.4409 9.63517 68.4345C9.16957 68.425 8.69853 68.4084 8.23059 68.4155C7.66953 68.4242 7.10615 68.4266 6.5482 68.4803C5.97162 68.5363 5.41211 68.7077 4.96513 69.0995C4.22326 69.7503 4.00287 70.6001 4.18369 71.5582C4.40873 72.7429 5.05903 73.5706 6.21839 73.9229C6.81618 74.1049 7.44916 74.132 8.05987 74.0019C8.62752 73.8961 9.157 73.6376 9.59327 73.2531C9.66713 73.1948 9.72785 73.1211 9.77136 73.0369C9.81486 72.9527 9.84014 72.86 9.84547 72.765C9.86332 72.3488 9.91609 71.9333 9.9192 71.5171C9.9254 70.5638 9.91143 69.6105 9.90367 68.6572C9.89902 68.5938 9.89073 68.5308 9.87884 68.4684Z" fill="#E20010"/>
<path d="M56.7329 68.3891C53.4038 68.3891 50.1368 68.3164 46.824 68.4049C46.8411 68.6418 46.8512 68.8661 46.8721 69.0849C46.9575 69.9798 47.1468 70.8494 47.5185 71.67C47.8075 72.3394 48.2562 72.9247 48.8238 73.3728C49.724 74.0687 50.7514 74.1824 51.8293 74.041C52.7201 73.9241 53.5497 73.5924 54.3769 73.2583C54.7564 73.1059 55.1328 72.9424 55.5409 72.7726C55.929 73.5987 56.3092 74.4107 56.705 75.2463C56.632 75.3 56.5637 75.36 56.4877 75.4043C54.8736 76.3789 53.14 77.0068 51.2674 77.1727C49.5602 77.3235 47.9306 77.0384 46.4562 76.0772C45.452 75.4224 44.7489 74.4975 44.1607 73.4629C43.4363 72.1756 42.9976 70.7425 42.8756 69.2642C42.6294 66.5688 43.1917 64.0593 44.5627 61.7357C45.5187 60.1205 46.9458 59.243 48.7322 58.9405C50.3742 58.6466 52.0656 58.9331 53.5256 59.7524C54.3436 60.2034 54.9132 60.9135 55.3826 61.7096C56.0034 62.7593 56.3301 63.9164 56.4869 65.1153C56.6142 66.082 56.6545 67.0606 56.7306 68.0376C56.7399 68.1379 56.7329 68.2422 56.7329 68.3891ZM52.6976 65.3207C52.5044 64.4195 52.3725 63.4985 51.7928 62.7348C51.5021 62.3552 51.0938 62.0869 50.6342 61.9734C49.412 61.6441 48.1836 62.2175 47.6582 63.3951C47.4704 63.8145 47.3602 64.2702 47.2236 64.7117C47.1623 64.9115 47.1228 65.1193 47.0739 65.3207C47.4021 65.4091 52.3616 65.4131 52.6992 65.323L52.6976 65.3207Z" fill="#E20010"/>
<path d="M34.8936 54.6236L38.866 53.998V58.9636C39.7476 59.0173 40.5872 58.9589 41.4315 59.0513V62.1103C40.5779 62.1245 39.7421 62.0984 38.8707 62.1521C38.8707 62.3243 38.8707 62.453 38.8707 62.5818C38.8634 65.5262 38.8572 68.4709 38.852 71.4159C38.852 71.8795 38.8885 72.3439 38.9296 72.806C38.9948 73.5168 39.3821 73.9678 40.0587 74.1408C40.432 74.2371 40.8154 74.2916 41.194 74.3651L41.5743 74.4441V77.0402C41.5316 77.0617 41.4861 77.0771 41.4393 77.086C40.3117 77.1373 39.1888 77.1073 38.0985 76.7701C37.0338 76.4431 36.1461 75.8507 35.5439 74.8745C35.2017 74.3216 35.0278 73.7001 34.9526 73.0579C34.9071 72.6557 34.8848 72.2512 34.8858 71.8464C34.8858 66.2544 34.8889 60.6631 34.8952 55.0722L34.8936 54.6236Z" fill="#E20010"/>
<path d="M58.9167 54.6269L62.7579 53.9492V54.4887C62.7579 59.5672 62.76 64.6457 62.7641 69.7243C62.7641 70.6539 62.7719 71.5835 62.7789 72.5139C62.7851 73.4317 63.1141 73.8992 63.9755 74.1725C64.2682 74.2549 64.5654 74.3198 64.8656 74.3668C65.0487 74.4016 65.2342 74.4181 65.4569 74.4458V77.098C65.4362 77.1154 65.4117 77.1276 65.3855 77.1335C64.2944 77.1786 63.208 77.1604 62.1472 76.8445C61.5044 76.6562 60.9059 76.3369 60.388 75.9062C59.4234 75.1029 59.0307 74.0264 58.9298 72.8124C58.9004 72.457 58.9042 72.0977 58.905 71.7407C58.905 66.1851 58.9089 60.63 58.9167 55.0755V54.6269Z" fill="#E20010"/>
<path d="M27.1706 76.863H23.2905C23.2859 76.698 23.2781 76.5471 23.2774 76.3978C23.2732 74.0252 23.2699 71.6526 23.2673 69.28C23.2626 67.3844 23.251 65.4889 23.2517 63.5933C23.253 63.2496 23.2789 62.9064 23.3293 62.5666C23.3868 62.1788 23.5862 61.8557 23.8632 61.5832C25.3873 60.0731 27.2133 59.168 29.2953 58.7778C30.6002 58.5343 31.9374 58.5324 33.2429 58.7723C33.312 58.7849 33.381 58.8007 33.4486 58.8181C33.4819 58.8268 33.5137 58.8433 33.5781 58.8686C33.1374 60.0091 32.6004 61.0991 32.0944 62.1764C31.4899 62.1764 30.9172 62.1582 30.3461 62.1803C29.3597 62.2137 28.3915 62.4591 27.5051 62.9006C27.2536 63.0262 27.1597 63.1826 27.1605 63.4772C27.1714 67.7949 27.174 72.1125 27.1683 76.4302L27.1706 76.863Z" fill="#E20010"/>
<path d="M20.4287 59.1309C20.4699 65.0482 20.4249 70.9307 20.4621 76.8496H16.6651C16.6558 76.7067 16.6371 76.5574 16.6371 76.4081C16.6371 72.6881 16.6371 68.9675 16.6371 65.2464C16.6371 63.5412 16.6511 61.836 16.6581 60.1308C16.6581 60.0012 16.6581 59.8717 16.6581 59.709L20.4287 59.1309Z" fill="#E20010"/>
<path d="M18.3723 57.389C16.5184 57.3842 15.3575 55.506 16.1266 53.7329C16.5991 52.6453 17.4109 52.2322 18.5819 52.2393C20.151 52.2528 21.3142 53.8411 20.9402 55.3931C20.6414 56.6331 19.6636 57.3921 18.3723 57.389Z" fill="#E20010"/>
</svg>
