<svg width="147" height="42" viewBox="0 0 147 42" fill="none" xmlns="http://www.w3.org/2000/svg">
<path d="M144.59 11.4443C144.915 11.4467 145.235 11.5321 145.52 11.6929C145.819 11.8557 146.065 12.1032 146.228 12.4053C146.393 12.7001 146.48 13.0332 146.481 13.3724C146.48 13.7083 146.394 14.0383 146.231 14.3303C146.069 14.6315 145.826 14.8793 145.531 15.0443C145.244 15.2101 144.919 15.2973 144.589 15.2973C144.259 15.2973 143.934 15.2101 143.647 15.0443C143.351 14.879 143.108 14.6313 142.945 14.3303C142.78 14.0375 142.693 13.7056 142.693 13.3678C142.693 13.0301 142.78 12.6982 142.945 12.4053C143.109 12.1028 143.355 11.8552 143.654 11.6929C143.94 11.531 144.262 11.4455 144.59 11.4443ZM144.59 11.7637C144.319 11.7659 144.053 11.8374 143.817 11.9715C143.567 12.1075 143.362 12.3142 143.225 12.5665C143.087 12.8104 143.014 13.087 143.014 13.3686C143.014 13.6501 143.087 13.9268 143.225 14.1707C143.362 14.4225 143.568 14.629 143.817 14.7656C144.056 14.9058 144.327 14.9795 144.602 14.9795C144.878 14.9795 145.149 14.9058 145.387 14.7656C145.637 14.6299 145.843 14.4232 145.979 14.1707C146.115 13.9274 146.187 13.6523 146.188 13.3724C146.187 13.0897 146.114 12.8121 145.976 12.5665C145.84 12.3142 145.634 12.1075 145.384 11.9715C145.141 11.8343 144.868 11.7627 144.59 11.7637ZM143.759 14.4418V12.3632H144.458C144.633 12.3549 144.808 12.3747 144.977 12.4219C145.082 12.4574 145.173 12.528 145.233 12.6222C145.295 12.7103 145.328 12.8154 145.33 12.9235C145.33 12.997 145.317 13.07 145.289 13.1381C145.262 13.2061 145.221 13.2678 145.17 13.3196C145.057 13.4353 144.906 13.5032 144.746 13.5094C144.811 13.534 144.87 13.5714 144.92 13.6194C145.033 13.7447 145.132 13.8827 145.216 14.0306L145.464 14.4358H145.062L144.881 14.1089C144.796 13.9285 144.68 13.7652 144.538 13.6269C144.46 13.5737 144.368 13.5482 144.274 13.5546H144.082V14.4418H143.759ZM144.088 13.2744H144.486C144.622 13.2882 144.759 13.2582 144.877 13.1886C144.91 13.1609 144.937 13.1257 144.955 13.0857C144.973 13.0458 144.982 13.0021 144.98 12.9581C144.981 12.8993 144.964 12.8417 144.93 12.7939C144.895 12.7443 144.847 12.7065 144.791 12.6855C144.684 12.6552 144.572 12.643 144.461 12.6493H144.088V13.2744Z" fill="#58595B"/>
<path d="M23.763 12.5164C26.9017 12.5164 29.446 9.92675 29.446 6.7323C29.446 3.53785 26.9017 0.948242 23.763 0.948242C20.6244 0.948242 18.0801 3.53785 18.0801 6.7323C18.0801 9.92675 20.6244 12.5164 23.763 12.5164Z" fill="#F16522"/>
<path d="M31.8122 37.9636C34.9508 37.9636 37.4952 35.374 37.4952 32.1796C37.4952 28.9851 34.9508 26.3955 31.8122 26.3955C28.6736 26.3955 26.1293 28.9851 26.1293 32.1796C26.1293 35.374 28.6736 37.9636 31.8122 37.9636Z" fill="#F16522"/>
<path d="M6.24216 32.5662C9.38078 32.5662 11.9251 29.9765 11.9251 26.7821C11.9251 23.5877 9.38078 20.998 6.24216 20.998C3.10355 20.998 0.559204 23.5877 0.559204 26.7821C0.559204 29.9765 3.10355 32.5662 6.24216 32.5662Z" fill="#F16522"/>
<path d="M6.99983 18.8777C9.03993 18.8777 10.6938 17.1944 10.6938 15.118C10.6938 13.0416 9.03993 11.3584 6.99983 11.3584C4.95973 11.3584 3.30591 13.0416 3.30591 15.118C3.30591 17.1944 4.95973 18.8777 6.99983 18.8777Z" fill="#F6921E"/>
<path d="M33.4226 17.3367C35.4627 17.3367 37.1165 15.6534 37.1165 13.577C37.1165 11.5006 35.4627 9.81738 33.4226 9.81738C31.3825 9.81738 29.7286 11.5006 29.7286 13.577C29.7286 15.6534 31.3825 17.3367 33.4226 17.3367Z" fill="#F6921E"/>
<path d="M21.3004 40.8552C23.3405 40.8552 24.9943 39.172 24.9943 37.0956C24.9943 35.0192 23.3405 33.3359 21.3004 33.3359C19.2603 33.3359 17.6064 35.0192 17.6064 37.0956C17.6064 39.172 19.2603 40.8552 21.3004 40.8552Z" fill="#F6921E"/>
<path d="M12.5866 37.5787C13.999 37.5787 15.144 36.4134 15.144 34.9759C15.144 33.5384 13.999 32.373 12.5866 32.373C11.1743 32.373 10.0293 33.5384 10.0293 34.9759C10.0293 36.4134 11.1743 37.5787 12.5866 37.5787Z" fill="#FFC10E"/>
<path d="M35.8851 24.6617C37.2975 24.6617 38.4424 23.4964 38.4424 22.0589C38.4424 20.6214 37.2975 19.4561 35.8851 19.4561C34.4727 19.4561 33.3278 20.6214 33.3278 22.0589C33.3278 23.4964 34.4727 24.6617 35.8851 24.6617Z" fill="#FFC10E"/>
<path d="M13.1547 11.1666C14.5671 11.1666 15.7121 10.0013 15.7121 8.56376C15.7121 7.12626 14.5671 5.96094 13.1547 5.96094C11.7424 5.96094 10.5974 7.12626 10.5974 8.56376C10.5974 10.0013 11.7424 11.1666 13.1547 11.1666Z" fill="#FFC10E"/>
<path d="M56.1265 41.4027V12.163H59.1973V15.8579C59.9255 14.44 60.8874 13.3515 62.0832 12.5923C63.2812 11.8326 64.6677 11.4375 66.079 11.4536C68.7992 11.4536 70.9841 12.4206 72.6337 14.3547C74.2833 16.2887 75.1076 18.8529 75.1067 22.0472C75.1067 25.2987 74.2996 27.8809 72.6855 29.7939C71.0714 31.7068 68.9116 32.6643 66.2063 32.6663C64.6524 32.6663 63.2987 32.2973 62.1454 31.5592C60.992 30.8212 60.0508 29.7216 59.3216 28.2605V41.4027H56.1265ZM59.2343 22.0411C59.2343 24.2503 59.8184 26.0197 60.9866 27.3492C62.1547 28.6787 63.7023 29.3465 65.6291 29.3525C67.5096 29.3525 68.9896 28.7435 70.069 27.5254C71.1483 26.3074 71.6875 24.6168 71.6865 22.4538C71.6865 20.0328 71.1473 18.1349 70.069 16.7602C68.9906 15.3854 67.4894 14.6976 65.5655 14.6966C63.6001 14.6966 62.0541 15.3493 60.9274 16.6547C59.8007 17.9602 59.2378 19.7576 59.2388 22.0472L59.2343 22.0411Z" fill="#58595B"/>
<path d="M95.9233 12.1644V31.8257H92.7902V28.2588C92.0345 29.6908 91.0691 30.7833 89.894 31.5365C88.7136 32.2906 87.345 32.6833 85.9514 32.6677C83.2441 32.6677 81.0627 31.6971 79.4072 29.7561C77.7516 27.815 76.9238 25.2458 76.9238 22.0485C76.9238 18.811 77.7279 16.2358 79.3361 14.3229C80.9443 12.4099 83.0947 11.4559 85.7872 11.461C87.3658 11.461 88.7362 11.83 89.8984 12.5681C91.0607 13.3061 91.998 14.4052 92.7103 15.8653V12.1644H95.9233ZM92.7902 22.178C92.7902 19.9578 92.2096 18.1704 91.0484 16.8157C89.8871 15.4611 88.3721 14.7843 86.5035 14.7853C84.5667 14.7853 83.0552 15.4084 81.9689 16.6546C80.8827 17.9007 80.34 19.6415 80.341 21.8768C80.341 24.2547 80.8871 26.0883 81.9793 27.3777C83.0715 28.667 84.621 29.3117 86.6278 29.3117C88.5517 29.3117 90.0598 28.6851 91.1519 27.4319C92.2441 26.1787 92.7902 24.4274 92.7902 22.178Z" fill="#58595B"/>
<path d="M118.035 12.164V31.4819C118.035 33.6157 117.898 35.1345 117.624 36.0383C117.349 36.9382 116.885 37.7664 116.264 38.4649C115.38 39.4573 114.273 40.217 113.037 40.6791C111.766 41.1621 110.307 41.4036 108.658 41.4036C105.797 41.4036 103.567 40.7233 101.969 39.3626C100.37 38.002 99.5358 36.075 99.4647 33.5816H103.092V33.8392C103.092 35.3153 103.58 36.4545 104.556 37.2569C105.531 38.0592 106.913 38.4609 108.7 38.4619C109.991 38.4619 111.094 38.2435 112.009 37.8067C112.89 37.3992 113.622 36.7185 114.1 35.8621C114.401 35.3401 114.61 34.7687 114.717 34.1735C114.841 33.5289 114.903 32.605 114.902 31.402V28.0882C114.174 29.4941 113.219 30.5721 112.038 31.3222C110.845 32.0771 109.465 32.4686 108.06 32.4504C105.352 32.4504 103.17 31.4904 101.516 29.5704C99.8614 27.6504 99.0336 25.1003 99.0326 21.9201C99.0326 18.7067 99.8362 16.1606 101.443 14.2818C103.051 12.403 105.201 11.4611 107.894 11.4561C109.461 11.4561 110.836 11.8251 112.018 12.5632C113.2 13.3012 114.134 14.3862 114.821 15.8182V12.164H118.035ZM114.902 22.0481C114.902 19.8389 114.325 18.0625 113.172 16.7189C112.019 15.3754 110.5 14.7021 108.617 14.699C106.679 14.699 105.167 15.3221 104.082 16.5683C102.997 17.8145 102.454 19.5552 102.454 21.7905C102.454 24.1694 103 26.0031 104.092 27.2914C105.185 28.5798 106.735 29.2245 108.742 29.2255C110.666 29.2255 112.174 28.5918 113.267 27.3246C114.359 26.0573 114.904 24.2985 114.902 22.0481Z" fill="#58595B"/>
<path d="M140.23 12.1644V31.8257H137.097V28.2588C136.342 29.6918 135.375 30.7843 134.197 31.5365C133.017 32.2906 131.648 32.6833 130.255 32.6677C127.547 32.6677 125.365 31.6971 123.711 29.7561C122.056 27.815 121.228 25.2458 121.227 22.0485C121.227 18.811 122.031 16.2358 123.638 14.3229C125.245 12.4099 127.396 11.4559 130.089 11.461C131.668 11.461 133.039 11.83 134.202 12.5681C135.365 13.3061 136.302 14.4052 137.014 15.8653V12.1644H140.23ZM137.097 22.178C137.097 19.9578 136.517 18.1704 135.356 16.8157C134.196 15.4611 132.681 14.7843 130.811 14.7853C128.874 14.7853 127.362 15.4084 126.277 16.6546C125.192 17.9007 124.649 19.6415 124.649 21.8768C124.649 24.2547 125.195 26.0883 126.287 27.3777C127.379 28.667 128.931 29.3117 130.942 29.3117C132.866 29.3117 134.374 28.6851 135.466 27.4319C136.558 26.1787 137.102 24.4274 137.097 22.178Z" fill="#58595B"/>
</svg>
