<svg width="108" height="56" viewBox="0 0 108 56" fill="none" xmlns="http://www.w3.org/2000/svg">
<path d="M54.0304 0.836914C24.2791 0.836914 0.160522 13.1738 0.160522 28.3915C0.160522 43.6094 24.2791 55.9461 54.0304 55.9461C83.7817 55.9461 107.9 43.6092 107.9 28.3915C107.9 13.1736 83.7817 0.836914 54.0304 0.836914ZM54.0304 51.596C26.6274 51.596 4.41298 41.2071 4.41298 28.3915C4.41298 15.5759 26.6277 5.187 54.0304 5.187C81.4334 5.187 103.648 15.5759 103.648 28.3915C103.648 41.2071 81.4332 51.596 54.0304 51.596ZM47.2368 23.5574V19.2064H62.4341V23.5574H56.9629V37.5766H52.7089V23.5574H47.2368ZM80.7783 19.2064V37.5768H76.5261L68.8134 26.6411V37.5768H64.5609V19.2064H68.8132L76.5259 30.1422V19.2064H80.7783ZM27.1559 37.5768V19.2064H31.4083L36.1328 26.6411L40.8574 19.2064H45.1081V37.5768H40.8574V27.1861L37.6319 32.258H34.6337L31.4083 27.1861V37.5768H27.1559Z" fill="#FFC10E"/>
</svg>
