<svg width="74" height="64" viewBox="0 0 74 64" fill="none" xmlns="http://www.w3.org/2000/svg">
<path d="M31.4197 0.326286V0.28125H58.1654V0.328123L31.4197 0.326286Z" fill="#E4B935"/>
<path d="M31.4199 0.327148H58.1656C57.9634 1.31685 57.7648 2.30749 57.558 3.29625C56.7664 7.07982 55.9723 10.8621 55.1757 14.6432C54.8541 16.1801 54.5324 17.718 54.207 19.2531C54.1657 19.4402 54.184 19.5066 54.3908 19.5094C55.1261 19.5206 55.8614 19.5094 56.5967 19.4804C56.9563 19.4586 57.3172 19.4825 57.6711 19.5515C58.3145 19.6899 58.4937 20.1623 58.1086 20.7114C57.8932 20.9972 57.6132 21.2257 57.2924 21.3775C56.5673 21.7582 55.7823 21.921 54.9837 22.0267C54.5901 22.0881 54.1925 22.1194 53.7943 22.1202C53.6399 22.1202 53.6004 22.1932 53.5747 22.3195C53.3296 23.5044 53.0824 24.6918 52.833 25.8817L50.5637 36.7721C50.5178 36.9929 50.4718 37.2127 50.4286 37.4354C50.4066 37.5607 50.3624 37.6365 50.2218 37.6103C50.1836 37.6065 50.1451 37.6065 50.1069 37.6103H23.9375C23.6214 37.6103 23.6223 37.6103 23.6903 37.281C25.0003 31.0023 26.3097 24.7236 27.6185 18.4449C27.9108 17.0442 28.204 15.6441 28.4981 14.2447C28.5236 14.1637 28.5184 14.0759 28.4834 13.9987C28.0928 13.212 27.9687 12.3579 27.8869 11.4954C27.6783 9.30275 28.1792 7.20829 28.7665 5.12973C28.9365 4.53104 29.5762 4.16248 30.2738 4.24292C30.5302 4.27192 30.6037 4.20083 30.6515 3.95387C30.8841 2.77147 31.1386 1.59374 31.3868 0.414144C31.3952 0.38419 31.4063 0.355074 31.4199 0.327148ZM40.5189 19.6909C40.5874 19.6834 40.6564 19.6834 40.7248 19.6909C41.5649 19.8854 41.995 19.3803 42.3351 18.7208C42.3737 18.645 42.4132 18.5683 42.4463 18.4907C42.6825 17.9435 42.6816 17.9425 42.2468 17.5553C42.2182 17.5278 42.1875 17.5028 42.1549 17.4804C41.9647 17.3626 41.9656 17.2363 42.0823 17.0436C42.4439 16.4449 42.9723 15.9693 43.6003 15.6772C44.2283 15.3852 44.9275 15.29 45.6089 15.4037C45.842 15.4359 46.0618 15.533 46.244 15.6844C46.8414 16.1717 47.459 16.631 48.0895 17.0744C48.6695 17.4935 49.2749 17.875 49.902 18.2166C50.1345 18.3401 50.1474 18.3345 50.1262 18.08C50.0858 17.5992 50.0389 17.1187 49.9856 16.6385C49.8671 15.559 49.5463 14.5646 48.868 13.6975C48.3818 13.0763 47.9195 12.4356 47.4232 11.8219C47.3749 11.7691 47.3391 11.7057 47.3185 11.6366C47.298 11.5676 47.2932 11.4946 47.3046 11.4234C47.4149 10.5385 47.4167 10.5329 46.8745 9.83315C45.6797 8.29153 44.2606 6.97069 42.8102 5.68538C42.7249 5.61949 42.6253 5.57524 42.5198 5.55629C41.5171 5.30521 40.4913 5.16193 39.4592 5.12879C38.86 5.10073 38.3048 5.16808 37.8131 5.54226C37.4115 5.84815 36.9859 5.89866 36.4813 5.81354C34.8527 5.53758 33.2158 5.3112 31.5807 5.07547C31.1046 5.00718 30.6331 4.88838 30.1469 4.9127C29.7288 4.93235 29.4962 5.08015 29.3905 5.43094C28.8694 7.16339 28.4714 8.92109 28.5293 10.7499C28.5595 12.4376 29.1085 14.0733 30.0992 15.4271C31.2021 16.9407 32.6947 17.9117 34.4014 18.5693C36.3692 19.3251 38.4262 19.5955 40.5143 19.6871L40.5189 19.6909ZM40.3351 31.1716C40.2386 31.2361 40.1752 31.2792 40.1109 31.3203C39.314 31.8292 38.5181 32.34 37.7166 32.8414C37.5549 32.9424 37.5475 32.9948 37.6982 33.122C38.985 34.2024 40.2662 35.2913 41.5502 36.3764C41.5823 36.4045 41.6117 36.4522 41.6798 36.4195C41.6935 36.1781 41.7211 35.9302 41.7174 35.6823C41.717 35.4025 41.7749 35.1257 41.8875 34.8704C42.245 34.0023 42.5869 33.1276 42.938 32.2567C42.9829 32.1499 43.0034 32.0341 42.9977 31.9181C42.9665 31.1473 42.9371 30.3765 42.9141 29.6057C42.9102 29.4662 42.8686 29.3306 42.7937 29.2137C41.9812 27.876 41.1742 26.5355 40.359 25.1988C40.3228 25.1457 40.2994 25.0847 40.2904 25.0207C40.2815 24.9567 40.2874 24.8915 40.3075 24.8302C40.4436 24.3522 40.5667 23.8704 40.7018 23.3915C40.7528 23.2041 40.7684 23.0086 40.7478 22.8153C40.7 22.2877 40.6559 21.7601 40.62 21.2316C40.6099 21.0557 40.5612 20.9977 40.3783 20.9968C39.1611 20.9976 37.9468 20.8751 36.7534 20.631C33.6459 19.9762 31.1414 18.3934 29.3547 15.6928C29.3188 15.6395 29.3014 15.5628 29.2058 15.5412C29.1957 15.5852 29.1847 15.6282 29.1755 15.6713C28.3826 19.4991 27.59 23.3276 26.7978 27.1567C26.6985 27.6347 26.6985 27.6403 27.1709 27.6908C27.4761 27.7236 27.7665 27.8227 28.09 27.703C29.6571 27.1295 31.2342 26.5851 32.8059 26.0192C32.8838 25.9827 32.9702 25.9691 33.0554 25.98C33.1405 25.9909 33.2209 26.0259 33.2875 26.0809C35.3738 27.5963 37.4645 29.1061 39.5594 30.6103L40.3351 31.1716ZM32.9879 26.9088C32.9879 28.0538 32.9879 29.1828 32.9879 30.3129C32.9899 30.5056 32.9526 30.6967 32.8785 30.8741C32.2719 32.3437 31.6726 33.8171 31.0642 35.2866C31.0296 35.3547 31.013 35.4307 31.0159 35.5073C31.0188 35.5838 31.0411 35.6583 31.0807 35.7235C31.2094 35.9536 31.3234 36.1912 31.4291 36.4335C31.4486 36.4948 31.4881 36.5473 31.5412 36.5824C31.5942 36.6175 31.6575 36.633 31.7204 36.6262C33.1836 36.6178 34.6459 36.6262 36.1082 36.6196C36.1716 36.6196 36.2442 36.6496 36.3122 36.5738C36.178 36.2932 36.0485 36.0022 35.9032 35.7216C35.8288 35.5866 35.8065 35.4281 35.8407 35.2773C36.1992 33.4943 36.5484 31.7085 36.9124 29.9265C36.9492 29.7497 36.9124 29.6618 36.7745 29.5636C35.5748 28.7136 34.3772 27.8604 33.1818 27.0042C33.129 26.9471 33.0573 26.9118 32.9805 26.905L32.9879 26.9088ZM53.2218 21.5262C53.3899 21.5262 53.5581 21.5318 53.7263 21.5262C54.7309 21.4851 55.7226 21.3588 56.6785 21.022C56.9726 20.9326 57.2437 20.7784 57.4726 20.5702C57.581 20.4645 57.6794 20.3401 57.6159 20.1801C57.5599 20.0379 57.4082 20.0276 57.2814 20.0267C56.9753 20.0267 56.6674 20.0183 56.3623 20.0463C55.0714 20.1718 53.7689 20.0735 52.5104 19.7554C50.2715 19.1895 48.2761 18.1147 46.4306 16.7339C46.1911 16.5435 45.9051 16.4235 45.6034 16.3869C44.7422 16.2933 43.994 16.4963 43.4371 17.2222C43.3341 17.356 43.3314 17.4411 43.4665 17.5627C44.1769 18.2036 44.9425 18.7781 45.7541 19.2793C48.0426 20.6993 50.5104 21.5244 53.2144 21.5225L53.2218 21.5262ZM46.3708 20.5141C46.3947 20.6768 46.4168 20.7947 46.4287 20.921C46.4664 21.3232 46.596 21.7142 46.5565 22.124C46.4351 23.3803 46.1723 24.6151 46.0105 25.8658C45.8855 26.8396 45.7578 27.8143 45.8092 28.7984C45.8506 29.5935 46.1043 30.3101 46.7669 30.7825C47.3919 31.2277 48.0785 31.3634 48.8 30.9845C48.8561 30.9604 48.9032 30.9188 48.9346 30.8657C48.966 30.8125 48.98 30.7507 48.9746 30.6889C48.9717 30.4243 48.9462 30.1604 48.8983 29.9003C48.8662 29.7357 48.8138 29.6927 48.6391 29.7245C47.9903 29.8433 47.5445 29.3681 47.6713 28.7123C47.7825 28.1361 48.0077 27.5991 48.2228 27.0594C48.7458 25.7638 49.3671 24.5122 49.9103 23.2241C50.049 22.8612 50.1341 22.4795 50.163 22.0912C50.1777 21.964 50.163 21.8985 50.0068 21.8779C49.7496 21.8397 49.4948 21.786 49.2439 21.7171C48.2378 21.4483 47.2715 21.0438 46.3708 20.5141Z" fill="#DFAC0F"/>
<path d="M40.9352 48.4204C41.2045 48.4644 41.4685 48.5372 41.7228 48.6374C42.5574 48.992 43.0022 49.6496 43.0427 50.5467C43.118 52.2034 42.334 53.4204 41.04 54.3324C40.2082 54.9154 39.2209 55.2249 38.211 55.2192C36.8719 55.2295 35.5318 55.2192 34.1918 55.2192C33.8333 55.2192 33.7524 55.1163 33.8241 54.7627C34.6348 50.7646 35.4457 46.7665 36.257 42.7685C36.3397 42.3578 36.4408 42.2773 36.8452 42.2773C37.7101 42.2773 38.5749 42.2773 39.4407 42.2773C40.2413 42.2773 41.0308 42.3709 41.7715 42.703C42.5748 43.0631 43.1778 43.6281 43.2642 44.5598C43.3873 45.8891 42.9471 47.007 41.8947 47.8451C41.5951 48.0698 41.2735 48.2626 40.9352 48.4204ZM37.3902 53.7085V53.6945C37.6733 53.6945 37.9564 53.7066 38.2385 53.6945C39.5979 53.628 40.4894 52.8301 40.7348 51.47C40.9333 50.3643 40.4058 49.5991 39.3222 49.4326C38.6457 49.3306 37.9628 49.4082 37.2836 49.3839C37.1715 49.3839 37.165 49.4475 37.1494 49.5261C37.0741 49.9068 36.9959 50.2876 36.9178 50.6674C36.7266 51.6028 36.5391 52.5382 36.3415 53.4737C36.3011 53.6608 36.336 53.7309 36.5419 53.7169C36.8231 53.6945 37.1071 53.7085 37.3902 53.7085ZM38.1531 47.8704C38.4432 47.8882 38.7344 47.8712 39.0207 47.8199C40.0767 47.5738 40.8828 46.6169 40.9876 45.4812C41.0712 44.5785 40.6806 44.0416 39.812 43.8601C39.4269 43.7797 39.0363 43.8021 38.6485 43.7769C38.3819 43.7591 38.2919 43.8414 38.2413 44.1118C38.0198 45.3016 37.7744 46.4868 37.5244 47.6721C37.4849 47.8591 37.54 47.8807 37.6944 47.8704C37.8489 47.8601 37.9996 47.8704 38.1531 47.8704Z" fill="#171717"/>
<path d="M51.6343 47.0328C51.7547 46.7288 51.8659 46.4715 51.9578 46.2124C51.9837 46.11 52.0449 46.0204 52.1303 45.9601C52.2157 45.8999 52.3196 45.8728 52.4229 45.884C52.8135 45.8925 53.2041 45.884 53.5947 45.884C53.8842 45.884 53.9688 45.9935 53.9137 46.2751C53.4848 48.4322 53.0558 50.5896 52.6269 52.7474C52.5833 52.9214 52.5684 53.1016 52.5828 53.2806C52.6223 53.58 52.7207 53.6857 53.0148 53.7249C53.1986 53.7493 53.2758 53.8522 53.2446 54.028C53.1922 54.3264 53.1315 54.6239 53.0607 54.9186C53.0456 55.0086 52.9986 55.0898 52.9287 55.147C52.8588 55.2042 52.7708 55.2334 52.6812 55.2291C52.3134 55.2466 51.945 55.21 51.5874 55.1206C51.0222 54.9691 50.7134 54.5977 50.6417 53.9981C50.6334 53.9298 50.6307 53.8606 50.6242 53.7801C50.525 53.8045 50.49 53.8887 50.4404 53.9466C49.3007 55.2132 47.889 55.6623 46.2438 55.3713C45.1354 55.1749 44.4461 54.4705 44.1979 53.3452C43.9856 52.3863 44.0996 51.4397 44.2898 50.4958C44.5141 49.3733 44.8918 48.3153 45.5765 47.3817C46.7594 45.755 48.6638 45.4098 50.1123 45.7793C50.7823 45.9561 51.2768 46.3695 51.6343 47.0328ZM46.2116 52.2198C46.2118 52.4308 46.2296 52.6414 46.2649 52.8494C46.3651 53.4705 46.7015 53.8148 47.3118 53.9186C48.5066 54.1225 49.65 53.594 50.2446 52.5033C50.8344 51.4048 51.122 50.1648 51.0773 48.914C51.0562 48.029 50.6435 47.4799 49.9119 47.262C49.4826 47.1421 49.0319 47.1245 48.5949 47.2105C47.821 47.3433 47.3697 47.8709 47.0535 48.5426C46.5058 49.7044 46.3109 50.9514 46.2116 52.2198Z" fill="#171717"/>
<path d="M69.3591 42.3574C69.1048 43.6172 68.8499 44.8744 68.5944 46.1291C68.3407 47.3854 68.088 48.6417 67.8324 49.9065C67.9519 49.899 67.9905 49.8129 68.0466 49.7568C69.1945 48.5997 70.3443 47.4444 71.484 46.2788C71.6001 46.1499 71.7426 46.0487 71.9014 45.9822C72.0603 45.9158 72.2316 45.8858 72.4031 45.8943C72.8231 45.9102 73.245 45.8943 73.6659 45.9028C73.7579 45.9028 73.8737 45.8775 73.9141 45.971C73.9545 46.0646 73.8424 46.1301 73.779 46.1899C72.3697 47.5401 70.9561 48.8878 69.5383 50.2329C69.3894 50.3742 69.3894 50.4621 69.4951 50.6286C70.3737 52.014 71.2414 53.4069 72.1154 54.797C72.1568 54.8625 72.1981 54.9289 72.234 54.9962C72.3094 55.1365 72.268 55.2348 72.1118 55.2357C71.4454 55.2357 70.7791 55.2423 70.1136 55.2273C69.9142 55.2273 69.7993 55.0617 69.7019 54.8924C69.0407 53.7362 68.3772 52.5825 67.7111 51.4312C67.6707 51.3611 67.6514 51.2713 67.5494 51.2226C67.36 52.1581 67.1735 53.0814 66.985 54.0065C66.9262 54.2965 66.8702 54.5865 66.8058 54.8746C66.7415 55.1627 66.6339 55.2404 66.3591 55.2423C65.9308 55.2423 65.5016 55.2423 65.0724 55.2423C64.6901 55.2423 64.6184 55.1562 64.6947 54.783C64.9299 53.6258 65.1689 52.4687 65.4042 51.3106C65.9201 48.7842 66.4321 46.2617 66.94 43.7428C66.948 43.6787 66.9722 43.6177 67.0102 43.5659C67.0482 43.5141 67.0987 43.4732 67.1569 43.4472C67.8141 43.1161 68.4657 42.7737 69.1201 42.4379C69.1897 42.3867 69.2732 42.3586 69.3591 42.3574Z" fill="#171717"/>
<path d="M58.0366 47.3931C58.3553 46.9588 58.723 46.5642 59.1322 46.2172C60.0982 45.4127 62.0558 45.5381 62.9639 46.3828C63.6992 47.0685 63.8986 47.9468 63.7396 48.8991C63.5328 50.133 63.258 51.3547 63.0181 52.5829C62.9657 52.8495 62.9161 53.1199 62.9887 53.393C63.0393 53.5848 63.1202 53.7391 63.3564 53.7373C63.5549 53.7373 63.6321 53.8607 63.599 54.0469C63.5466 54.3444 63.4878 54.6428 63.4198 54.9374C63.4041 55.0238 63.3583 55.1016 63.2907 55.1562C63.2231 55.2109 63.1384 55.2388 63.0521 55.2349C62.6846 55.2554 62.3162 55.2172 61.9603 55.1217C61.1331 54.8851 60.725 54.2798 60.7654 53.3444C60.7921 52.7092 60.975 52.103 61.0844 51.4838C61.2332 50.6419 61.4823 49.8187 61.5283 48.9581C61.5388 48.7874 61.5388 48.6161 61.5283 48.4454C61.4639 47.5006 60.8849 47.0498 59.9741 47.2069C59.6896 47.2537 59.418 47.3613 59.1772 47.5225C58.9365 47.6837 58.7319 47.895 58.5771 48.1424C58.1671 48.7541 57.9934 49.452 57.8482 50.1648C57.5314 51.7176 57.2119 53.2705 56.8896 54.8233C56.8216 55.1507 56.7122 55.2358 56.3832 55.2368C55.9393 55.2368 55.4944 55.2368 55.0505 55.2368C54.7683 55.2368 54.6829 55.1189 54.7362 54.8364C55.1651 52.703 55.5958 50.5695 56.0284 48.4361C56.0762 48.2004 56.1332 47.9684 56.0633 47.7214C56.0082 47.5343 55.9089 47.4127 55.6957 47.3949C55.4393 47.3734 55.3841 47.2827 55.4356 47.0208C55.4871 46.7588 55.5385 46.5016 55.5918 46.2434C55.6035 46.145 55.6507 46.0546 55.7242 45.9898C55.7978 45.9249 55.8925 45.8903 55.9898 45.8926C56.3651 45.8682 56.7419 45.9055 57.1056 46.003C57.7113 46.1817 57.964 46.4969 58.0247 47.1349C58.0247 47.2022 58.0247 47.2696 58.0366 47.3931Z" fill="#171717"/>
<path d="M4.35787 47.8468H5.7457C6.43503 47.8468 7.12435 47.8468 7.81367 47.8468C8.14546 47.8468 8.22542 47.946 8.16017 48.2771C8.1087 48.5363 8.05355 48.7944 7.99657 49.0526C7.92396 49.3782 7.81275 49.468 7.46441 49.468C6.40745 49.468 5.35049 49.468 4.29445 49.4605C4.09317 49.4605 4.00953 49.4998 3.96634 49.7215C3.64649 51.3697 3.30642 53.0133 2.97463 54.6597C2.88272 55.1274 2.80919 55.191 2.33127 55.191C1.8947 55.191 1.45813 55.191 1.02247 55.191C0.706305 55.191 0.624505 55.0872 0.688842 54.771C1.07486 52.8664 1.4618 50.9625 1.84966 49.0592C2.27244 46.9794 2.694 44.8999 3.11433 42.8207C3.21727 42.3118 3.28621 42.2501 3.80274 42.251L9.77686 42.2622C10.2033 42.2622 10.2677 42.3417 10.1803 42.7561C10.1289 42.9993 10.0802 43.2435 10.0232 43.4858C9.9524 43.7879 9.84763 43.8721 9.54249 43.8721C8.16384 43.8721 6.7852 43.8721 5.40656 43.8721C5.22274 43.8721 5.14554 43.9067 5.10693 44.106C4.86797 45.3454 4.61246 46.5858 4.35787 47.8468Z" fill="#171717"/>
<path d="M22.4375 55.426C21.7101 55.4191 20.9885 55.2927 20.3006 55.0518C20.0582 54.975 19.8375 54.84 19.6572 54.658C19.4734 54.4625 19.4734 54.2838 19.6343 54.0743C19.739 53.9405 19.8558 53.817 19.9679 53.6879C20.2436 53.3671 20.2896 53.3558 20.7032 53.5008C21.2767 53.6973 21.8539 53.875 22.4632 53.9059C23.0027 53.9349 23.5331 53.9134 24.0422 53.702C24.2427 53.6219 24.4204 53.4924 24.5594 53.325C24.6983 53.1576 24.7941 52.9576 24.8382 52.7431C24.9237 52.4054 24.8272 52.1725 24.5358 51.9854C24.2257 51.8002 23.8941 51.655 23.5487 51.5532C23.1572 51.4241 22.7665 51.2848 22.3686 51.179C20.944 50.7927 20.6012 49.6992 20.8796 48.4541C21.2114 46.9714 22.364 45.9284 23.8961 45.7058C24.9871 45.5495 26.0643 45.6122 27.0918 46.0734C27.2983 46.1564 27.4889 46.2755 27.6552 46.4251C27.8262 46.5916 27.839 46.7301 27.692 46.9144C27.5082 47.137 27.317 47.3465 27.1341 47.5692C27.0422 47.6786 26.942 47.6711 26.8243 47.6365C26.3767 47.5065 25.9494 47.3072 25.4889 47.2221C24.9641 47.1286 24.4384 47.0958 23.92 47.2474C23.6965 47.3075 23.4919 47.4251 23.3259 47.5889C23.16 47.7527 23.0382 47.9573 22.9724 48.1828C22.807 48.6833 22.988 49.0406 23.4825 49.1987C24.0946 49.3942 24.7095 49.5794 25.3207 49.7693C25.6297 49.8567 25.9269 49.9824 26.2058 50.1435C26.7223 50.4569 26.9778 50.9274 27.0082 51.5289C27.09 53.1435 26.2361 54.4241 24.6626 55.0527C23.9871 55.3221 23.2831 55.4288 22.4375 55.426Z" fill="#171717"/>
<path d="M30.119 47.2868C29.8387 47.2868 29.5556 47.2868 29.2735 47.2868C28.9463 47.2868 28.8737 47.1998 28.9362 46.8809C28.9812 46.6517 29.0281 46.4234 29.0823 46.197C29.0976 46.1033 29.1464 46.0187 29.2194 45.9594C29.2924 45.9002 29.3843 45.8705 29.4775 45.8762C29.7303 45.8762 29.9839 45.8612 30.2358 45.8762C30.4049 45.8883 30.4563 45.8229 30.483 45.6638C30.5529 45.2429 30.6429 44.8219 30.722 44.4038C30.7367 44.3271 30.7431 44.2569 30.8267 44.2167C31.5832 43.8294 32.3387 43.4384 33.1162 43.0371C33.1364 43.2887 33.0565 43.4992 33.0169 43.7125C32.8965 44.3673 32.7651 45.01 32.6291 45.6573C32.5932 45.8266 32.6181 45.8912 32.8083 45.8809C33.1208 45.865 33.4361 45.8734 33.7495 45.8809C34.0031 45.8855 34.0822 45.9791 34.0371 46.2345C33.9921 46.4898 33.9379 46.7218 33.88 46.9632C33.8221 47.2045 33.675 47.2971 33.4443 47.2953C33.1153 47.2953 32.7853 47.2953 32.4563 47.2953C32.3387 47.2953 32.2789 47.3224 32.2532 47.4496C31.9119 49.1895 31.5675 50.9282 31.2201 52.6657C31.1779 52.8649 31.1878 53.072 31.2486 53.2662C31.295 53.3994 31.3818 53.5143 31.4964 53.5941C31.6111 53.6739 31.7476 53.7147 31.8865 53.7105C32.494 53.7264 32.4995 53.7321 32.3837 54.341C32.3478 54.5281 32.3074 54.7218 32.2642 54.9107C32.2515 54.9971 32.2085 55.076 32.1431 55.1325C32.0777 55.1891 31.9944 55.2197 31.9085 55.2185C31.4196 55.2306 30.926 55.2634 30.438 55.1755C29.4821 55.0015 29.0088 54.4271 28.9922 53.428C28.9812 52.7732 29.1567 52.1493 29.2827 51.5169C29.5584 50.1297 29.8424 48.7433 30.1218 47.3561C30.1239 47.333 30.123 47.3097 30.119 47.2868Z" fill="#171717"/>
<path d="M17.4293 46.9199C17.5183 46.8037 17.6131 46.6923 17.7133 46.586C18.3999 45.9237 19.239 45.702 20.1599 45.7197C20.3438 45.7197 20.4237 45.7796 20.3741 45.9901C20.2748 46.4054 20.1985 46.8264 20.1103 47.2445C20.0322 47.6187 19.9118 47.6804 19.5451 47.6346C18.6048 47.5177 17.5764 47.8469 17.2703 49.2248C16.8622 51.0677 16.4716 52.9152 16.0755 54.7608C15.9836 55.2014 15.9027 55.2688 15.4542 55.2678C15.0488 55.2678 14.6426 55.2678 14.2373 55.2678C13.9202 55.2678 13.8421 55.164 13.9092 54.8459C14.3608 52.7094 14.8129 50.5734 15.2658 48.4381C15.3143 48.2498 15.3384 48.0557 15.3374 47.861C15.3227 47.5504 15.2124 47.4213 14.9064 47.3708C14.7226 47.3409 14.6362 47.2361 14.672 47.0453C14.7244 46.7646 14.7768 46.484 14.8393 46.2034C14.8521 46.1089 14.8987 46.0226 14.97 45.9608C15.0414 45.8991 15.1326 45.8662 15.2262 45.8685C15.7005 45.861 16.1757 45.8685 16.6361 46.0116C17.0644 46.1444 17.3273 46.4251 17.364 46.8984L17.4293 46.9199Z" fill="#171717"/>
<path d="M9.38882 53.6333C9.40812 52.9663 9.59745 52.3293 9.73348 51.6838C10.1075 49.9065 10.4917 48.1291 10.8732 46.3518C10.943 46.0253 11.057 45.9364 11.3787 45.9346C11.8076 45.9346 12.2365 45.9346 12.6654 45.9346C12.988 45.9346 13.0661 46.0281 12.999 46.3452C12.5474 48.4743 12.0943 50.6028 11.6397 52.7306C11.5775 52.9883 11.5548 53.2544 11.5726 53.5192C11.6002 53.8176 11.704 53.9308 11.9871 53.9738C12.1562 54 12.2343 54.1019 12.2058 54.2656C12.1525 54.5725 12.0919 54.8774 12.022 55.1796C12.0046 55.2604 11.9602 55.3325 11.8963 55.3837C11.8324 55.4349 11.7531 55.4619 11.6718 55.4602C11.2123 55.4752 10.7528 55.4378 10.3208 55.2516C9.68017 54.9803 9.37227 54.4322 9.38882 53.6333Z" fill="#171717"/>
<path d="M41.4983 60.9411C42.2741 61.3892 42.3421 62.2881 41.6822 62.9364C41.2006 63.4135 40.1491 63.5669 39.5517 63.2488C39.4124 63.1806 39.2952 63.0733 39.2138 62.9396C39.1324 62.8059 39.0902 62.6512 39.0922 62.4939C39.0741 62.2239 39.1309 61.9542 39.2562 61.7155C39.3815 61.4769 39.5702 61.2788 39.8008 61.1441C39.9157 61.0711 40.0416 61.0159 40.1611 60.957C40.1611 60.9392 40.1611 60.9177 40.1537 60.914C39.5002 60.5697 39.6454 59.9383 39.9874 59.4434C40.1602 59.2114 40.4078 59.0488 40.6868 58.9841C40.9988 58.9003 41.3252 58.8875 41.6426 58.9467C41.9478 58.9982 42.2272 59.1273 42.3219 59.4603C42.3796 59.6377 42.3918 59.8272 42.3572 60.0108C42.3226 60.1944 42.2424 60.3658 42.1242 60.5089C41.9616 60.7035 41.7465 60.8204 41.4983 60.9411ZM39.8752 62.2601C39.8684 62.3934 39.9104 62.5246 39.9931 62.6282C40.0757 62.7319 40.1932 62.8007 40.3228 62.8213C40.9303 62.9542 41.5176 62.3218 41.366 61.6988C41.3416 61.5756 41.2761 61.4649 41.1806 61.3852C41.0851 61.3056 40.9655 61.2621 40.8421 61.262C40.3247 61.2395 39.8734 61.7035 39.8752 62.2601ZM41.1463 59.4837C41.0585 59.4831 40.9714 59.5001 40.8901 59.5337C40.8087 59.5674 40.7347 59.6171 40.6722 59.6799C40.6097 59.7427 40.56 59.8174 40.5259 59.8998C40.4918 59.9822 40.474 60.0706 40.4735 60.16C40.4698 60.2221 40.4783 60.2844 40.4986 60.3431C40.5188 60.4018 40.5503 60.4559 40.5913 60.502C40.6323 60.5482 40.682 60.5856 40.7373 60.612C40.7927 60.6384 40.8527 60.6533 40.9138 60.6558C41.2493 60.6614 41.6031 60.2816 41.6105 59.9158C41.6151 59.6595 41.4276 59.4855 41.1463 59.4837Z" fill="#171717"/>
<path d="M45.7492 59.7877C45.7303 59.5794 45.6445 59.3833 45.5051 59.2297C45.3658 59.076 45.1806 58.9733 44.9781 58.9374C44.6903 58.885 44.3942 58.9085 44.1178 59.0057C43.3256 59.2966 43.0379 59.9533 42.9635 60.7288C42.8853 61.5632 43.3614 61.9935 44.1831 61.8962C44.4938 61.8588 44.7079 61.682 44.9285 61.4752C44.9069 61.7475 44.8222 62.0107 44.6813 62.2432C44.4432 62.681 44.0875 62.9037 43.5839 62.8176C43.417 62.7982 43.2523 62.7624 43.0921 62.711C42.8164 62.6053 42.81 62.8532 42.7318 62.9813C42.6344 63.1413 42.8045 63.1759 42.8945 63.2208C43.6546 63.6053 44.4892 63.4397 45.0084 62.7381C45.6592 61.8709 45.8871 60.8653 45.7492 59.7877ZM45.0912 60.2021C45.0576 60.4653 44.9742 60.7194 44.8458 60.9505C44.7005 61.1927 44.5011 61.3387 44.2079 61.3246C43.8403 61.3153 43.6794 61.1478 43.6877 60.7194C43.7047 60.4653 43.7696 60.217 43.8789 59.9879C43.9475 59.8304 44.0617 59.6979 44.2061 59.6081C44.4202 59.4818 44.6564 59.4135 44.8779 59.5576C45.0994 59.7016 45.1325 59.9495 45.0912 60.2021Z" fill="#171717"/>
<path d="M47.8229 62.3014H46.1961C45.971 62.3014 45.9278 62.2294 46.0307 62.0208C46.0716 61.9466 46.1216 61.8781 46.1796 61.8168C46.9231 60.9487 47.6786 60.0909 48.4075 59.2107C48.6216 58.9516 48.867 58.9787 49.1326 58.9927C49.2825 59.0002 49.2245 59.1265 49.2071 59.2088C49.0772 59.8561 48.9461 60.5028 48.8137 61.1489C48.7911 61.2949 48.7605 61.4395 48.7218 61.582C48.6694 61.7467 48.7411 61.756 48.8735 61.7635C48.9773 61.7691 49.1621 61.67 49.1575 61.9038C49.151 62.2219 49.083 62.3229 48.8496 62.2976C48.6161 62.2724 48.5343 62.3669 48.5196 62.5783C48.509 62.6552 48.494 62.7314 48.4746 62.8065C48.3597 63.379 48.3597 63.3743 47.7852 63.3425C47.6428 63.3341 47.6171 63.2761 47.6428 63.1555C47.7025 62.8814 47.7586 62.6073 47.8229 62.3014ZM48.2531 60.1648L46.9434 61.7551C47.2761 61.7551 47.5472 61.7551 47.8183 61.7551C47.8352 61.7574 47.8524 61.7562 47.8688 61.7514C47.8852 61.7467 47.9005 61.7385 47.9136 61.7274C47.9268 61.7163 47.9375 61.7026 47.9451 61.6871C47.9528 61.6715 47.9572 61.6546 47.958 61.6372C48.0499 61.1695 48.1446 60.6999 48.2521 60.1639L48.2531 60.1648Z" fill="#171717"/>
<path d="M21.6057 63.3936C21.2548 63.3931 20.9074 63.3232 20.5828 63.1878C20.5019 63.1523 20.3429 63.1308 20.4155 63.0007C20.4881 62.8707 20.501 62.6181 20.7601 62.6808C21.1151 62.7767 21.4812 62.8226 21.8483 62.8174C22.0414 62.8128 22.2305 62.7611 22.3998 62.6668C22.8272 62.4236 22.8428 61.9596 22.42 61.7061C22.212 61.5937 21.9971 61.4949 21.7767 61.4105C20.8695 61.0129 20.7013 60.1121 21.421 59.4142C22 58.853 22.6976 58.8053 23.4356 58.998C23.5018 59.0157 23.5661 59.0401 23.6314 59.0625C23.9816 59.1851 23.988 59.2112 23.7968 59.519C23.7869 59.5416 23.7727 59.5619 23.755 59.5788C23.7373 59.5958 23.7165 59.609 23.6938 59.6177C23.671 59.6264 23.6468 59.6304 23.6226 59.6295C23.5983 59.6286 23.5744 59.6229 23.5524 59.6126C23.1936 59.4988 22.8165 59.4568 22.4421 59.4891C22.3151 59.4971 22.1918 59.5357 22.0823 59.6018C21.9729 59.6678 21.8804 59.7593 21.8125 59.8689C21.6287 60.1729 21.6967 60.4488 22.0101 60.6051C22.2224 60.7108 22.4467 60.7922 22.6636 60.8857C23.5992 61.2898 23.7316 62.3525 22.9283 62.9904C22.5937 63.2524 22.1516 63.3908 21.6057 63.3936Z" fill="#171717"/>
<path d="M27.0291 60.6621C27.2433 60.4273 27.4225 60.2056 27.7212 60.1382C28.5309 59.9567 29.0897 60.5068 28.9243 61.3318C28.8471 61.72 28.7653 62.1073 28.6918 62.4965C28.666 62.6349 28.6504 62.7593 28.8333 62.836C28.9767 62.8959 28.8526 63.0409 28.848 63.1475C28.8498 63.1708 28.8468 63.1942 28.8392 63.2162C28.8317 63.2383 28.8197 63.2584 28.8041 63.2755C28.7884 63.2926 28.7695 63.3061 28.7484 63.3153C28.7273 63.3246 28.7046 63.3292 28.6817 63.329C28.1798 63.387 27.8655 63.0587 27.9537 62.5498C28.0199 62.1672 28.1008 61.7874 28.1743 61.4057C28.1877 61.3442 28.196 61.2816 28.1991 61.2186C28.2056 60.9969 28.1991 60.7724 27.9684 60.6574C27.7699 60.5573 27.4583 60.6424 27.28 60.8445C27.1017 61.0465 27.0199 61.3122 26.9648 61.5835C26.8582 62.1008 26.7479 62.6171 26.6477 63.1363C26.6467 63.165 26.6398 63.1932 26.6274 63.2191C26.6149 63.2449 26.5973 63.2678 26.5757 63.2862C26.554 63.3047 26.5287 63.3182 26.5016 63.3261C26.4744 63.334 26.4459 63.3359 26.4179 63.3318C25.8803 63.3449 25.8812 63.3496 25.9896 62.8136C26.1091 62.2193 26.2277 61.6253 26.3453 61.0316C26.3738 60.8866 26.4143 60.7331 26.2038 60.6789C26.1119 60.6546 26.1321 60.5657 26.156 60.504C26.1983 60.3964 26.1459 60.2402 26.3076 60.1934C26.3855 60.1684 26.4677 60.161 26.5487 60.1718C26.6296 60.1827 26.7072 60.2115 26.776 60.2562C26.8448 60.3008 26.9031 60.3604 26.9468 60.4305C26.9906 60.5006 27.0187 60.5797 27.0291 60.6621Z" fill="#171717"/>
<path d="M33.9179 62.0149C33.7194 62.0149 33.519 62.0252 33.3214 62.0149C33.1743 62.0056 33.1376 62.0692 33.1376 62.202C33.1183 62.6941 33.3793 62.9551 33.8582 62.8952C34.0551 62.87 34.249 62.8249 34.4372 62.7605C34.5833 62.7109 34.6375 62.7605 34.6954 62.8868C34.7534 63.0131 34.7276 63.1104 34.6035 63.174C34.2258 63.3692 33.8003 63.4479 33.3793 63.4003C32.667 63.3292 32.3444 62.9092 32.4115 62.1796C32.4403 61.7831 32.5429 61.3958 32.7139 61.0383C33.0659 60.3246 33.7249 59.9953 34.4804 60.1497C34.9197 60.2432 35.1789 60.536 35.201 60.9916C35.2083 61.1316 35.1991 61.272 35.1734 61.4097C35.0815 61.8606 34.8976 62.0131 34.4464 62.0224C34.2708 62.0224 34.0944 62.0224 33.9188 62.0224L33.9179 62.0149ZM33.2589 61.5033H34.2396C34.2771 61.5078 34.3152 61.5014 34.3494 61.4849C34.3835 61.4683 34.4124 61.4423 34.4326 61.4097C34.5318 61.2366 34.485 60.8737 34.3407 60.7315C34.1964 60.5893 33.9813 60.5781 33.7681 60.7016C33.4694 60.8728 33.36 61.1787 33.2589 61.5033Z" fill="#171717"/>
<path d="M12.7476 42.3765C12.992 42.3765 13.2365 42.3709 13.4828 42.3765C13.7053 42.3831 13.7926 42.4869 13.7503 42.7039C13.6547 43.1916 13.5536 43.6774 13.447 44.1614C13.3909 44.4111 13.2632 44.5131 13.0058 44.5149C12.5463 44.5149 12.0867 44.5149 11.6272 44.5149C11.3404 44.5103 11.2595 44.399 11.3211 44.1146C11.413 43.659 11.5123 43.2035 11.6125 42.7498C11.6722 42.4785 11.7908 42.3821 12.0582 42.3756C12.2871 42.3756 12.5178 42.3756 12.7457 42.3756L12.7476 42.3765Z" fill="#171717"/>
<path d="M37.8606 59.8851C37.6124 59.9899 37.39 60.0844 37.1657 60.1751C37.1106 60.1976 37.0306 60.2368 36.9966 60.2144C36.9305 60.1714 36.9829 60.0862 36.9865 60.0189C37.0003 59.7757 37.1226 59.6344 37.3542 59.5455C37.7751 59.3809 38.1814 59.1854 38.5977 59.0049C38.6584 58.9777 38.7255 58.9113 38.7815 58.9506C38.8376 58.9899 38.7898 59.0806 38.7815 59.1442C38.5177 60.4632 38.2494 61.7813 37.9883 63.1002C37.9534 63.277 37.8762 63.3407 37.6951 63.3378C37.1722 63.3304 37.1759 63.3378 37.2834 62.8187C37.4746 61.8982 37.6602 60.9758 37.8477 60.0544C37.8542 60.0105 37.8532 59.9628 37.8606 59.8851Z" fill="#171717"/>
<path d="M29.5245 62.2756C29.534 61.8458 29.6349 61.4233 29.8205 61.0371C30.2037 60.2232 31.2258 59.8575 32.0061 60.2578C32.1053 60.3093 32.2901 60.3355 32.2248 60.5216C32.1504 60.7293 31.9693 60.8182 31.791 60.7321C31.0879 60.3953 30.5907 60.8191 30.4022 61.4159C30.301 61.7102 30.2548 62.0211 30.2662 62.3327C30.2901 62.7199 30.5263 62.9257 30.9096 62.8939C31.0915 62.8695 31.2698 62.823 31.4408 62.7555C31.5327 62.7246 31.6155 62.6947 31.6623 62.8247C31.7009 62.9323 31.7754 63.0258 31.6495 63.1353C31.2625 63.4711 30.2644 63.4973 29.8664 63.1736C29.576 62.9435 29.5172 62.6217 29.5245 62.2756Z" fill="#171717"/>
<path d="M24.0742 62.6261C24.1588 62.1967 24.258 61.6906 24.3619 61.1771C24.4152 60.9105 24.4777 60.6457 24.5237 60.3782C24.5244 60.3494 24.5311 60.3211 24.5434 60.2952C24.5556 60.2693 24.5732 60.2463 24.5948 60.2277C24.6164 60.2092 24.6416 60.1955 24.6688 60.1875C24.696 60.1796 24.7245 60.1777 24.7525 60.1818C25.2957 60.1649 25.2929 60.1602 25.1845 60.6934C25.0641 61.2874 24.9446 61.8805 24.8297 62.4755C24.8021 62.6195 24.7755 62.7561 24.9731 62.8337C25.1128 62.888 24.9942 63.0208 24.9896 63.1247C24.985 63.2285 24.9575 63.3043 24.8407 63.3277C24.4281 63.41 24.0742 63.1265 24.0742 62.6261Z" fill="#171717"/>
<path d="M25.1893 58.8461C25.2812 58.8461 25.352 58.8461 25.42 58.8461C25.488 58.8461 25.5496 58.876 25.5358 58.9546C25.5045 59.1295 25.4659 59.3025 25.4237 59.4747C25.4071 59.5402 25.3483 59.5626 25.284 59.5748C24.7417 59.6739 24.6792 59.5963 24.7895 59.0547C24.8456 58.7609 25.0533 58.8713 25.1893 58.8461Z" fill="#171717"/>
<path d="M40.514 19.6867C38.4259 19.5931 36.3689 19.3246 34.3993 18.5641C32.6925 17.9093 31.1999 16.9355 30.097 15.422C29.1064 14.0682 28.5574 12.4325 28.5272 10.7447C28.473 8.91593 28.8673 7.15823 29.3884 5.42578C29.4941 5.07499 29.7266 4.92719 30.1448 4.90755C30.631 4.88323 31.1025 5.00109 31.5786 5.07031C33.2137 5.30605 34.8506 5.53242 36.4792 5.80838C36.9829 5.89351 37.4093 5.84299 37.811 5.5371C38.3027 5.16292 38.8578 5.09557 39.4571 5.12364C40.4897 5.15916 41.5159 5.30495 42.5186 5.55862C42.6241 5.57756 42.7237 5.62182 42.809 5.68771C44.2594 6.97301 45.6757 8.29386 46.8733 9.83548C47.4155 10.5333 47.4137 10.5389 47.3034 11.4257C47.292 11.497 47.2968 11.5699 47.3173 11.639C47.3379 11.708 47.3737 11.7714 47.422 11.8242C47.9183 12.4379 48.3806 13.0787 48.8668 13.6998C49.5451 14.567 49.8658 15.5613 49.9844 16.6408C50.0377 17.1204 50.0846 17.6009 50.125 18.0824C50.1462 18.3368 50.1333 18.3424 49.9008 18.2189C49.2736 17.8773 48.6683 17.4958 48.0883 17.0768C47.4578 16.6334 46.8402 16.1741 46.2428 15.6867C46.0606 15.5353 45.8408 15.4382 45.6077 15.4061C44.9263 15.2923 44.2271 15.3876 43.5991 15.6796C42.9711 15.9716 42.4427 16.4472 42.0811 17.0459C41.9644 17.2386 41.9635 17.3649 42.1537 17.4827C42.1863 17.5052 42.217 17.5302 42.2456 17.5576C42.6804 17.9411 42.6813 17.942 42.4451 18.493C42.412 18.5707 42.3725 18.6474 42.3339 18.7231C41.9938 19.378 41.5637 19.8878 40.7236 19.6932C40.6542 19.6833 40.5839 19.6811 40.514 19.6867ZM42.7419 11.5286L41.5002 10.1105C41.3964 9.99169 41.3394 10.1105 41.2787 10.161C40.6501 10.7185 40.0226 11.2779 39.3964 11.8392C39.3431 11.8869 39.2641 11.9187 39.2531 12.0216L42.7419 11.5286Z" fill="#162D4C"/>
<path d="M40.3274 31.1674L39.5545 30.6062C37.4626 29.0982 35.372 27.5894 33.2826 26.0795C33.2159 26.0245 33.1355 25.9896 33.0504 25.9787C32.9653 25.9678 32.8789 25.9813 32.801 26.0178C31.2293 26.5791 29.6521 27.1244 28.0851 27.7016C27.7588 27.8213 27.4684 27.7222 27.166 27.6894C26.6936 27.6389 26.6936 27.6333 26.7928 27.1553C27.5832 23.3243 28.374 19.4946 29.165 15.6662C29.1742 15.6231 29.1852 15.5801 29.1953 15.5361C29.2872 15.5576 29.3084 15.6344 29.3442 15.6877C31.131 18.3883 33.6355 19.9748 36.743 20.6259C37.9363 20.87 39.1506 20.9925 40.3679 20.9917C40.5517 20.9917 40.5995 21.0506 40.6096 21.2265C40.6418 21.755 40.6895 22.2826 40.7373 22.8102C40.7579 23.0035 40.7424 23.199 40.6914 23.3864C40.5563 23.8653 40.4331 24.3471 40.2971 24.8251C40.2769 24.8864 40.271 24.9516 40.28 25.0156C40.2889 25.0796 40.3124 25.1406 40.3486 25.1937C41.1638 26.5304 41.9708 27.8709 42.7832 29.2086C42.8581 29.3255 42.8998 29.4611 42.9036 29.6006C42.9266 30.3714 42.956 31.1422 42.9873 31.913C42.9929 32.029 42.9725 32.1448 42.9275 32.2516C42.5765 33.1225 42.2345 33.9972 41.877 34.8653C41.7645 35.1206 41.7065 35.3974 41.707 35.6772C41.707 35.9251 41.6831 36.173 41.6693 36.4143C41.6013 36.4471 41.5719 36.3994 41.5397 36.3713C40.253 35.2862 38.9754 34.1973 37.6878 33.1169C37.5371 32.9906 37.5444 32.9382 37.7062 32.8363C38.5076 32.3349 39.3036 31.8241 40.1004 31.3152C40.1675 31.275 40.2309 31.232 40.3274 31.1674Z" fill="#162D4C"/>
<path d="M32.9805 26.9053C33.0557 26.9131 33.1255 26.9483 33.1772 27.0044C34.3751 27.8576 35.5727 28.7097 36.77 29.561C36.9097 29.6592 36.9446 29.7481 36.9078 29.924C36.5402 31.7013 36.1946 33.4918 35.8362 35.2747C35.8019 35.4256 35.8242 35.584 35.8987 35.719C36.0439 35.9997 36.1744 36.2887 36.3076 36.5712C36.2396 36.647 36.167 36.6171 36.1036 36.6171C34.6413 36.6171 33.179 36.6171 31.7158 36.6236C31.6529 36.6304 31.5896 36.6149 31.5366 36.5799C31.4835 36.5448 31.444 36.4922 31.4245 36.4309C31.3188 36.1896 31.2048 35.951 31.0762 35.7209C31.0366 35.6558 31.0142 35.5813 31.0113 35.5047C31.0084 35.4281 31.0251 35.3521 31.0596 35.2841C31.6681 33.8145 32.2673 32.3412 32.8739 30.8716C32.948 30.6942 32.9853 30.5031 32.9833 30.3103C32.9768 29.1793 32.9805 28.0503 32.9805 26.9053Z" fill="#162D4C"/>
<path d="M53.2141 21.5227C50.5102 21.5227 48.0424 20.6995 45.7483 19.2777C44.9368 18.7765 44.1711 18.202 43.4607 17.5611C43.3256 17.4395 43.3283 17.3544 43.4313 17.2206C43.9883 16.4947 44.7364 16.2927 45.5976 16.3853C45.8993 16.4219 46.1854 16.5419 46.4248 16.7323C48.2703 18.113 50.2657 19.1879 52.5046 19.7538C53.7619 20.0697 55.0628 20.1665 56.3519 20.0401C56.6562 20.012 56.964 20.0176 57.271 20.0204C57.3979 20.0204 57.5468 20.0316 57.6056 20.1738C57.669 20.3338 57.5707 20.4545 57.4622 20.5639C57.2333 20.7721 56.9622 20.9264 56.6681 21.0157C55.7122 21.3525 54.7205 21.4788 53.716 21.5199C53.5505 21.5284 53.3823 21.5227 53.2141 21.5227Z" fill="#162D4C"/>
<path d="M46.3706 20.5137C47.272 21.0439 48.2393 21.4488 49.2464 21.7176C49.4973 21.7865 49.7521 21.8403 50.0092 21.8785C50.1609 21.8991 50.1802 21.9645 50.1655 22.0918C50.1366 22.48 50.0515 22.8617 49.9127 23.2246C49.3696 24.5108 48.7483 25.7625 48.2253 27.0599C48.0075 27.5997 47.7823 28.1366 47.6738 28.7129C47.547 29.3677 47.9928 29.8438 48.6416 29.725C48.8163 29.6932 48.8687 29.7362 48.9008 29.9009C48.9487 30.161 48.9742 30.4248 48.9771 30.6895C48.9825 30.7512 48.9685 30.8131 48.9371 30.8662C48.9057 30.9193 48.8586 30.9609 48.8025 30.9851C48.081 31.3639 47.3944 31.2283 46.7694 30.783C46.1068 30.3106 45.8503 29.594 45.8117 28.7989C45.7603 27.8148 45.888 26.8401 46.013 25.8663C46.1748 24.6165 46.4376 23.3817 46.559 22.1245C46.5985 21.7148 46.4671 21.3238 46.4312 20.9215C46.4165 20.798 46.3945 20.6736 46.3706 20.5137Z" fill="#162D4C"/>
<path d="M42.7418 11.5294L39.2493 12.0224C39.2603 11.9195 39.3412 11.8877 39.3927 11.8399C40.0182 11.2787 40.6457 10.7193 41.275 10.1618C41.3356 10.1084 41.3926 9.99244 41.4965 10.1112L42.7418 11.5294Z" fill="#DCAA10"/>
</svg>
