<svg width="110" height="61" viewBox="0 0 110 61" fill="none" xmlns="http://www.w3.org/2000/svg">
<path fill-rule="evenodd" clip-rule="evenodd" d="M52.2696 1.27995C51.3685 1.76316 50.4549 2.06642 50.1059 1.99836C49.3637 1.85381 49.3351 2.11161 50.0226 2.74563C50.4843 3.17166 50.5009 3.29253 50.1694 3.80867C49.6094 4.68116 49.3955 6.54809 49.7403 7.55588C49.9745 8.2408 49.9665 8.49043 49.705 8.67065C49.1535 9.0504 47.5335 8.67119 47.0312 8.04452C46.4356 7.30162 46.4319 5.79185 47.0232 4.77154C47.4718 3.99733 47.467 3.96302 46.8151 3.29852C45.3025 1.75662 43.4285 1.98012 41.5174 3.92981C39.5174 5.9707 38.2943 9.10948 38.2881 12.2178C38.2849 13.794 38.4433 14.0572 39.0327 13.4564C39.9031 12.5692 39.0845 16.621 37.7447 19.8298C37.3021 20.8906 36.9865 21.8061 37.0436 21.8644C37.4576 22.2861 41.8868 19.3237 43.8799 17.2921C44.7451 16.4101 45.5279 15.6887 45.6198 15.6887C45.7116 15.6887 45.7055 16.1302 45.6062 16.67C45.4318 17.6187 45.4454 17.6408 46.0182 17.3283C47.1952 16.6861 48.715 15.0527 49.2216 13.8857C49.8757 12.3781 50.1353 12.365 49.8978 13.8511C49.5282 16.1642 47.8222 18.7945 45.6612 20.3832C45.2381 20.6941 43.98 21.3526 42.8653 21.8464L40.8388 22.7445L42.1659 23.3442C42.9695 23.7074 44.2567 23.9943 45.4307 24.0716C47.3685 24.1996 47.3693 24.1993 48.2642 23.2321L49.1591 22.2646L49.498 23.7047C49.8188 25.0674 49.803 25.1937 49.2027 26.0651C48.8539 26.5718 48.5513 27.0237 48.5302 27.0699C48.5088 27.1159 47.3068 27.4001 45.8585 27.7015C42.8661 28.3241 38.6623 29.9196 35.8226 31.5108C32.9645 33.1123 29.0435 36.2622 27.6225 38.0984C27.2694 38.5546 27.2983 38.5762 28.0231 38.3959C28.4528 38.2892 29.5293 37.8662 30.4154 37.4562C36.1986 34.7797 43.4803 32.6688 49.228 32.0027C52.3986 31.6352 59.9426 31.7985 62.454 32.2893C68.6135 33.4926 71.1896 34.34 79.3758 37.8553C80.3103 38.2568 81.1435 38.5154 81.2268 38.4302C81.6191 38.0303 76.6619 33.7591 73.9376 32.1494C69.8201 29.7165 65.9434 28.2228 61.8467 27.4913C59.7708 27.1208 59.073 26.8731 58.372 26.2582C57.8896 25.8351 57.3187 25.4888 57.1034 25.4888C56.5351 25.4888 56.6219 24.6675 57.3659 23.0037C58.0696 21.4291 58.5763 18.7961 58.5795 16.6956L58.5816 15.3887L59.4747 16.0831C60.8855 17.1799 61.2749 17.0346 61.076 15.4845C60.9846 14.7732 60.975 14.2527 61.0546 14.3275C61.1339 14.4024 61.8053 15.3898 62.5461 16.5214C63.9319 18.6382 66.0142 20.5493 68.1291 21.645C69.3741 22.2902 69.4548 22.1832 68.8686 20.6623C68.3067 19.2037 67.3986 15.1709 67.3965 14.1234C67.3946 13.2639 67.7271 12.9582 68.0623 13.5108C68.8723 14.8467 68.9666 11.3543 68.1897 8.79097C67.4825 6.45635 65.6967 3.76076 64.3234 2.95415C62.7641 2.03838 60.7256 2.21614 59.5972 3.36657C58.8148 4.1642 58.7985 4.22627 59.2151 4.83224C59.7655 5.63341 59.7751 7.21859 59.234 8.00559C58.7437 8.71937 58.0475 8.8054 58.0475 8.15233C58.0475 7.37811 57.0284 5.50192 56.3858 5.09304C56.0512 4.88016 55.4209 4.63107 54.9854 4.53933L54.1932 4.37273L54.8128 3.74116C55.2826 3.26231 55.6196 3.1477 56.2058 3.26721C56.8759 3.40387 56.9792 3.34289 56.9792 2.8115C56.9792 2.47421 56.7688 1.99591 56.5119 1.74873C56.255 1.50127 55.8896 1.10655 55.7003 0.871341C55.1731 0.217179 53.9884 0.358465 52.2696 1.27995ZM53.7745 21.2309C53.7745 21.4346 54.135 22.2896 54.5757 23.1313C55.0163 23.9731 55.3769 24.7772 55.3769 24.9182C55.3769 25.0595 55.0607 25.558 54.674 26.0262L53.9713 26.8775L53.4054 26.3395C53.0943 26.0436 52.5081 25.7175 52.103 25.6149C51.6976 25.5125 51.2951 25.3116 51.2083 25.1687C51.1218 25.0258 51.5435 24.193 52.1457 23.3181C52.7476 22.4432 53.2404 21.5323 53.2404 21.2941C53.2404 21.0559 53.3606 20.861 53.5074 20.861C53.6543 20.861 53.7745 21.0276 53.7745 21.2309ZM56.3741 42.9217C53.9473 43.5375 52.0722 45.1031 51.1148 47.3125C48.9818 52.2354 50.7188 57.6255 55.0705 59.5877C56.7333 60.3374 60.2953 60.1591 62.1202 59.2347L63.3887 58.5919V54.563V50.5337H60.963C59.6288 50.5337 58.5829 50.6255 58.639 50.7379C59.9319 53.3303 60.2083 54.1595 60.133 55.2212L60.0504 56.3866L58.4377 56.4661C56.4379 56.5649 55.2652 55.8762 54.3754 54.0808C53.7163 52.751 53.5729 50.5686 54.0587 49.2583C54.7025 47.5213 56.6086 46.1781 58.4302 46.1781C59.5772 46.1781 61.6672 46.8766 62.6543 47.5899L63.3887 48.1207V46.2301C63.3887 44.9844 63.2669 44.236 63.0319 44.0373C61.9185 43.0954 58.1666 42.4665 56.3741 42.9217ZM72.2001 42.8934C68.9083 43.9143 66.8613 46.7914 66.6501 50.6946C66.4984 53.501 67.032 55.4616 68.4428 57.2809C70.3024 59.6792 73.2644 60.6274 76.2528 59.7813C77.6637 59.3817 79.7866 57.3179 80.6676 55.4891C81.3312 54.1111 81.4143 53.6445 81.4058 51.3363C81.3972 49.0585 81.3043 48.5443 80.6564 47.1943C79.038 43.8228 75.313 41.9284 72.2001 42.8934ZM0.761978 44.1767C0.998327 44.7535 1.48358 45.5359 1.84037 45.9157C2.48639 46.6033 2.48906 46.6308 2.56064 53.2658L2.63221 59.9256L5.86953 59.9079C9.73925 59.8866 11.0852 59.4652 12.9445 57.6922C16.1984 54.5896 16.321 48.8084 13.2001 45.6271C11.3336 43.7245 10.1711 43.3948 4.82051 43.2498L0.332275 43.1281L0.761978 44.1767ZM22.8888 43.5108C22.3753 44.2072 15.5129 59.8069 15.6557 59.9525C15.9022 60.2038 17.734 59.5785 18.6733 58.9224C19.1623 58.581 19.8166 57.84 20.1277 57.276C20.6006 56.4182 20.8351 56.2505 21.5621 56.2505C22.966 56.2505 24.989 56.9833 26.7046 58.1136C28.2068 59.1034 30.9706 60.258 31.2228 60.001C31.2855 59.9373 30.5676 58.1177 29.6276 55.9579C28.6878 53.798 27.0737 50.0709 26.0404 47.6753C24.6544 44.4614 24.0294 43.2985 23.6556 43.2386C23.377 43.1939 23.032 43.3164 22.8888 43.5108ZM33.4778 51.6357V60.0875L35.147 60.0067L36.8161 59.9256L36.9496 55.4785L37.0831 51.0311L39.6291 53.4368C41.029 54.7598 43.1807 56.7917 44.4105 57.9519C45.6401 59.1121 46.7478 60.0617 46.872 60.0617C46.9962 60.0617 47.098 56.2641 47.098 51.6226V43.1836H45.3621H43.6262V47.5618C43.6262 50.1387 43.5241 51.903 43.3783 51.8494C43.2419 51.7996 41.0744 49.8295 38.5613 47.4712C36.0483 45.1129 33.8765 43.1836 33.735 43.1836C33.5756 43.1836 33.4778 46.3989 33.4778 51.6357ZM83.2605 43.5585C83.1828 43.7645 83.1566 44.5303 83.202 45.2599L83.2848 46.5864L85.6216 46.6651L87.9584 46.7438V53.4158V60.0875L89.6275 60.0067L91.2966 59.9256L91.3682 53.3241L91.4398 46.7225H93.705H95.9702V44.9531V43.1836H89.686C84.5955 43.1836 83.3748 43.2549 83.2605 43.5585ZM99.0289 43.5271C98.9578 43.7158 98.9317 47.4829 98.9707 51.8981L99.0414 59.9256L103.915 59.9999L108.789 60.0739V58.2985V56.5227H105.584H102.38V54.9185C102.38 52.9857 102.383 52.9838 105.606 52.9838H107.988V51.3504V49.717H105.184H102.38V48.2198V46.7225L104.716 46.7185C106.038 46.7163 107.332 46.5685 107.695 46.3782C108.487 45.9633 109.242 44.925 109.474 43.9322L109.648 43.1836H104.403C100.428 43.1836 99.1269 43.2666 99.0289 43.5271ZM75.2273 46.5494C77.3763 47.4646 78.4681 50.3848 77.6861 53.1267C76.9477 55.7161 75.0227 56.9749 72.8956 56.2592C69.3535 55.0677 69.0838 48.36 72.5086 46.6398C73.6065 46.0885 74.1059 46.0719 75.2273 46.5494ZM9.45029 47.3351C11.1408 48.2056 11.8458 49.4026 11.8458 51.4016C11.8458 54.4557 10.1342 56.2505 7.2214 56.2505H5.97048V51.4865V46.7225H7.11564C7.77288 46.7225 8.76768 46.9836 9.45029 47.3351ZM24.5254 51.5298C25.0451 52.6764 25.4222 53.6635 25.3634 53.7237C25.2726 53.816 22.2559 53.0271 22.0615 52.8602C21.979 52.7894 23.3864 49.4448 23.4985 49.4448C23.5437 49.4448 24.0057 50.3829 24.5254 51.5298Z" fill="white"/>
</svg>
